<svg xmlns="http://www.w3.org/2000/svg" width="927.685" height="202.867" viewBox="0 0 927.685 202.867"><defs><style>.a{fill:#707070;stroke:#707070;}</style></defs><path class="a" d="M566.375,201.867V174.982h53.508L534.569,27.011H497.375V0H619.452V27.011H563.016l86.35,147.972h39.087v26.885Zm-196.682,0V139.316H318.057l-35.871,62.551H251.892l36.5-62.551h-36.5l-13.4-27.01h65.661L369.692,0h59.061q37.726,0,57.154,16.917t19.427,49.9q0,35.682-19.427,54.092t-57.154,18.41h-30.8v62.551Zm28.259-89.561h30.8q23.173,0,35.042-11.586t11.868-33.906q0-19.618-11.868-29.712T428.753,27.011h-30.8Zm-64.4,0h36.146V49.277ZM716,153.88l162.742-51.426v-3.48L716,47.547V5.014L926.685,81.187v39.054L716,196.414ZM0,120.241V81.187L210.685,5.014V47.547L47.943,98.974v3.48L210.685,153.88v42.534Z" transform="translate(0.5 0.5)"/></svg>